inDegrees=no
num_controls=7
num_derivatives=13
num_iterations=139
num_multipliers=7
num_parameters=0
num_slacks=7
num_states=26
objective=5.140905
objective_accelerations=0.466426
objective_balance=0.046282
objective_effort=0.442526
objective_height=4.165033
objective_ligament=0.020638
solver_duration=1552.046642
status=Solve_Succeeded
success=true
DataType=double
version=3
OpenSimVersion=4.4-2022-07-23-0e9fedc
endheader
time	/jointset/ground_pelvis/pelvis_tilt/value	/jointset/ground_pelvis/pelvis_tx/value	/jointset/ground_pelvis/pelvis_ty/value	/jointset/hip_l/hip_flexion_l/value	/jointset/hip_l/hip_adduction_l/value	/jointset/hip_l/hip_rotation_l/value	/jointset/back/lumbar_extension/value	/jointset/patellofemoral_l/patellar_flexion_l/value	/jointset/knee_l/knee_flexion_l/value	/jointset/knee_l/knee_adduction_l/value	/jointset/knee_l/knee_rotation_l/value	/jointset/ankle_l/ankle_angle_l/value	/jointset/subtalar_l/subtalar_angle_l/value	/jointset/ground_pelvis/pelvis_tilt/speed	/jointset/ground_pelvis/pelvis_tx/speed	/jointset/ground_pelvis/pelvis_ty/speed	/jointset/hip_l/hip_flexion_l/speed	/jointset/hip_l/hip_adduction_l/speed	/jointset/hip_l/hip_rotation_l/speed	/jointset/back/lumbar_extension/speed	/jointset/patellofemoral_l/patellar_flexion_l/speed	/jointset/knee_l/knee_flexion_l/speed	/jointset/knee_l/knee_adduction_l/speed	/jointset/knee_l/knee_rotation_l/speed	/jointset/ankle_l/ankle_angle_l/speed	/jointset/subtalar_l/subtalar_angle_l/speed	/forceset/tau_hip_flexion_l	/forceset/tau_hip_adduction_l	/forceset/tau_hip_rotation_l	/forceset/tau_knee_flexion_l	/forceset/tau_ankle_angle_l	/forceset/tau_subtalar_angle_l	/forceset/tau_lumbar_extension	lambda_cid13_p0	lambda_cid13_p1	lambda_cid13_p2	lambda_cid13_p3	lambda_cid13_p4	lambda_cid13_p5	lambda_cid14_p0	/jointset/ground_pelvis/pelvis_tilt/accel	/jointset/ground_pelvis/pelvis_tx/accel	/jointset/ground_pelvis/pelvis_ty/accel	/jointset/hip_l/hip_flexion_l/accel	/jointset/hip_l/hip_adduction_l/accel	/jointset/hip_l/hip_rotation_l/accel	/jointset/back/lumbar_extension/accel	/jointset/patellofemoral_l/patellar_flexion_l/accel	/jointset/knee_l/knee_flexion_l/accel	/jointset/knee_l/knee_adduction_l/accel	/jointset/knee_l/knee_rotation_l/accel	/jointset/ankle_l/ankle_angle_l/accel	/jointset/subtalar_l/subtalar_angle_l/accel	gamma_cid13_p0	gamma_cid13_p1	gamma_cid13_p2	gamma_cid13_p3	gamma_cid13_p4	gamma_cid13_p5	gamma_cid14_p0
1.5	-0.4641524755181319	-0.09256566519704022	0.7784522228551823	1.212083018434488	-0.3079823077459772	-0.1014604583253836	-0.3400484053321889	0.5426394752698555	0.542639475269678	-0.1744426463393378	0.1739728130388652	-0.05177616515485458	-0.06339966247450761	0.7972343204935056	0.3204361414175214	0.4161220979393059	-2.18036610394536	0.06924073172416158	-0.4465293776784735	0.5675503239585523	-1.346546431963401	-1.346546431963898	0.0004077385696656276	-0.005781110343599892	-0.01396377395461797	0.0782366123559405	-0.2565074027731375	0.01553767921364058	-0.01795352067685272	-0.1734740056471826	0.1770392412365317	0.04132470886742255	0.2280088082955078	17.11913462995154	-23.74539049016494	6.582242211858371	-5.999501753840421	-614.3573858983556	-61.70987554940542	-35.75606525659808	0.5435746767554737	0.6522089030112279	-0.1817007620437406	-1.481001975342152	0.3753818235769236	-0.1867155103621136	1.656884227440598	-0.870651864511984	-0.8706518645119833	0.02874136232935968	-0.06408715475200868	0.1517891289676707	0.3941836169530294	-3.845151812307576e-08	5.826551138735119e-07	-3.235005673792298e-08	1.220151758621685e-07	9.995510466477012e-08	-5.381698801336373e-08	7.698757303695393e-08
1.51	-0.4561534752347022	-0.0893289751519898	0.7826035769964138	1.190207453917944	-0.3072718345210018	-0.1059355205643588	-0.334291319802459	0.5291324119618452	0.5291324119617675	-0.1744380363996635	0.1739131566821192	-0.05190821688663977	-0.06259828282576885	0.802454683004272	0.3268657595651697	0.4140677549076203	-2.194450645316036	0.07284997473266172	-0.448425774343329	0.5838005723624448	-1.354680054168702	-1.354680054168692	0.0005103368486320465	-0.006147768646852026	-0.0124340243039611	0.08203585066610822	-0.2484840022530343	0.01468001586294886	-0.01796041873180807	-0.172542255334641	0.1756685353679605	0.04038176656215718	0.2218812884220195	16.88886809420774	-23.41097991354299	6.660773772636444	-5.776332271869624	-610.4547767661982	-61.88689331662252	-36.31068369801265	0.4946112357715381	0.6329470051259175	-0.2294244422426232	-1.327753480337702	0.3530111483512997	-0.1824181097058936	1.599163704025534	-0.7568070676989772	-0.7568070676229159	0.0005475310102531529	-0.02254457474587048	0.1554486682489978	0.3721805577044274	-4.113131810926807e-08	6.116621039711371e-07	-3.419322950615145e-08	1.237858835587675e-07	1.096921275446025e-07	-4.799549478734279e-08	7.893709285140999e-08
1.52	-0.4481056024866341	-0.08602906717856459	0.7867319630336251	1.16819992933511	-0.306525405744139	-0.1104278100431898	-0.3283737180772824	0.5155495944980605	0.5155495944979738	-0.1744324947833174	0.173849915860619	-0.0520245949648715	-0.06175903346999941	0.8070088134163469	0.3330797270924806	0.4115284771353089	-2.206758117183024	0.07643184209587424	-0.4499748256145116	0.5996535630527713	-1.3616972631404	-1.361697263139884	0.0005940739407627915	-0.006498003215440111	-0.01082904324794236	0.08581055376248997	-0.2404606017339137	0.01382235251174624	-0.01796731678861512	-0.1716105050219952	0.1742978294992781	0.03943882425638699	0.2157537685477062	16.64976650463367	-23.07608096783879	6.740436530465766	-5.524764325722356	-606.6802643025768	-62.09936607960208	-36.83998385908393	0.4103282570178771	0.6090787789434087	-0.2786877101689857	-1.125588074604286	0.3699066945195371	-0.1172464316273516	1.577432684727943	-0.6473692177913706	-0.6473692177914049	0.02496912496226063	-0.06080240781945834	0.1668354100395945	0.3892765741957747	-3.965951125385933e-08	6.331001408722879e-07	-4.762234688536761e-08	1.200367060070542e-07	1.246628031758574e-07	-4.315602981609769e-08	8.174865742705892e-08
1.53	-0.440015523979768	-0.08266817206376161	0.7908325693290973	1.146078211062834	-0.3057433476727466	-0.1149338276185129	-0.3222998262030974	0.5019021268084675	0.5019021268083433	-0.1744263101922989	0.1737832037077423	-0.05212462173398612	-0.06088222312971036	0.8108917958720254	0.33905544232262	0.4085138001940334	-2.217275106731126	0.0799743370088198	-0.4511703462727752	0.615037684433161	-1.367600731518818	-1.367600731518698	0.0006433088220825249	-0.006842431400440755	-0.009164527693425755	0.08954650810798974	-0.2322671252296729	0.01281636237281518	-0.01801518964958087	-0.1707589893209626	0.1730451840110253	0.03838450446563007	0.2094410628478168	16.44771030604326	-22.70226434274449	6.817284070288069	-5.269341385672717	-602.8545341747387	-62.26009428658114	-37.34407621988898	0.3600211651124762	0.5852609174179214	-0.3246737139200051	-0.9681856756965064	0.3455120896116132	-0.1118559670733373	1.505832763197775	-0.5325216529444672	-0.5325216530038636	-0.004913708690758889	-0.02090046589707166	0.1680255187712985	0.364912306222995	-3.377662212924953e-08	6.464961650021847e-07	-7.336153041375804e-08	1.104226503790092e-07	1.451942348554988e-07	-3.93599698655519e-08	8.547614456147525e-08
1.54	-0.4318900680632581	-0.07924883119218191	0.7949006656495926	1.123860636638775	-0.3049260464122176	-0.1194500306174072	-0.3160747069354483	0.4882014872340776	0.4882014872340152	-0.1744195961281001	0.1737131197844486	-0.05220765016939002	-0.05996822175766894	0.8140842953384209	0.3447688784478208	0.4050264821399865	-2.225929347510594	0.08348047991907448	-0.4520119102969462	0.6298990417536358	-1.372331640100334	-1.37233164010061	0.0006999685670569223	-0.00717235726770515	-0.007429376514371252	0.09324876011331165	-0.2240736487268311	0.01181037223335701	-0.018063062510791	-0.1699074736200905	0.171792538522677	0.03733018467435133	0.2031283571466866	16.23867294252385	-22.32797527685016	6.894912794692829	-4.994132984105569	-599.1324649373628	-62.45491495165714	-37.82204460871088	0.2722316591621202	0.5566229579553595	-0.3732159327233654	-0.753038320877415	0.3626362939813568	-0.04645510480864963	1.472879872745689	-0.4128572584108944	-0.4128572584108946	0.02645409769324364	-0.05790194427246007	0.1809625349467827	0.3825361061601575	-2.899482222563064e-08	6.587588208371078e-07	-9.489612858450982e-08	1.017899723590679e-07	1.647584867951842e-07	-3.447715871579173e-08	8.838410787840202e-08
1.55	-0.4237361705727578	-0.07577375211515994	0.7989315617877919	1.101565868732255	-0.3040739459452976	-0.1239728933551181	-0.3097038124821623	0.4744593486989439	0.4744593486987619	-0.1744124121719909	0.1736398095660676	-0.05227307333795228	-0.05901746156679413	0.8165730035528883	0.3501941988179542	0.4010757690533841	-2.232696360007168	0.08692777645880322	-0.4525033867438319	0.6441745664971731	-1.375892182688985	-1.375892182689256	0.0007331042404848285	-0.007483787858945546	-0.005648084386511132	0.09689127179187698	-0.2157516651570121	0.0106632059400325	-0.01815283600699902	-0.1691443661701264	0.1706268876638741	0.03617338706425528	0.1966631964267964	16.0523173941452	-21.91529223492887	6.968865735835743	-4.68733110117552	-595.4199214122582	-62.59830942442454	-38.272931077046	0.2188613855639306	0.5275938792217038	-0.4175067720468156	-0.589347555707213	0.3339060751840685	-0.0418041803224001	1.38909641545367	-0.2970884094728918	-0.2970884094724245	-0.008697871268215227	-0.01680819681859453	0.1777867618237411	0.3532165495339662	-2.548166859837076e-08	6.697156392886917e-07	-1.11586313191026e-07	9.428801201802859e-08	1.832083794692683e-07	-2.83422211843281e-08	9.034783723169956e-08
1.56	-0.4155610518034789	-0.07224599837389965	0.8029206492400405	1.079213267732306	-0.3031877465647217	-0.1284989329104534	-0.3031933212534252	0.4606877176077606	0.4606877176077155	-0.1744049850937546	0.1735635761257868	-0.0523204687430855	-0.05803065468896929	0.8183285510862194	0.3553038112954796	0.3966647449498472	-2.237495966170214	0.09030026264715249	-0.4526472738184752	0.6578183968524971	-1.378230151292859	-1.378230151293126	0.0007485929764904247	-0.007757001660945441	-0.00382382385392015	0.100458097503617	-0.2074296815883775	0.009516039646648225	-0.01824260950261133	-0.1683812587202478	0.1694612368051852	0.03501658945412214	0.1901980357056636	15.86036482313626	-21.50199872889546	7.043143421919996	-4.366285432017006	-591.7920670361684	-62.77391160781411	-38.69605980976255	0.1255995229359735	0.4934813794335555	-0.4652781361102903	-0.3595570541716151	0.3476742237053826	0.02306276964005569	1.34654099510384	-0.1683424614555692	-0.1683424614555922	0.02292471020884832	-0.05025858642453632	0.1895562158927674	0.367398912795092	-2.134913528936903e-08	6.772620237091393e-07	-1.293997346792721e-07	8.58480613965628e-08	2.025453253638588e-07	-2.209331541123682e-08	9.210728237438468e-08
1.57	-0.4073720397118766	-0.06866880573954152	0.8068633727101239	1.056822509938464	-0.3022682691611973	-0.1330245553172131	-0.296549797901078	0.4468987679115251	0.4468987679113806	-0.1743976517544283	0.173484674812774	-0.0523494854379738	-0.05700864268632052	0.8193480961977043	0.3600737869559569	0.3918060223790821	-2.240312735334817	0.09357669849905535	-0.4524105596826428	0.6707605615474831	-1.379345081595138	-1.379345081595271	0.0007074980407271469	-0.008022373440839543	-0.001974122893933962	0.1039255081541955	-0.199019876370658	0.00821741231290501	-0.01837852800957099	-0.1677568691976227	0.1684465742125106	0.03377079052824487	0.1836198524064901	15.70701408982571	-21.05808202993746	7.113990939695532	-4.027425876009229	-588.2552024367449	-62.91413951950477	-39.09092747721406	0.07126637478343148	0.4596305066593903	-0.5072113680981897	-0.1913040653940863	0.3147570775949919	0.03407867962799137	1.249197397357219	-0.05088125364666015	-0.05088125362687035	-0.01909913897900863	-0.01446539592592644	0.1834840507624762	0.3335051135173457	-1.644237737818999e-08	6.805453655906667e-07	-1.486172022696806e-07	7.623562292456389e-08	2.229910877840821e-07	-1.570194933611097e-08	9.361137225380428e-08
1.58	-0.3991766052952159	-0.06504573837911654	0.810755300544391	1.034413871009347	-0.3013166016368051	-0.1375457899937888	-0.2897806242636763	0.4331051063243416	0.433105106324367	-0.174391023873078	0.1734031619976755	-0.05235984372019237	-0.05595253798270156	0.8196130160902121	0.3644787565088503	0.386505617786605	-2.241072193211059	0.096738286817423	-0.4517697277838919	0.682948453868862	-1.379172529458718	-1.379172529458718	0.0006075013645784845	-0.008279302106908401	-9.214134550320033e-05	0.1072766376979068	-0.1906100711536457	0.006918784979232675	-0.01851444651561472	-0.1671324796750918	0.1674319116199501	0.03252499160245387	0.1770416691065202	15.54969498857754	-20.61340822709838	7.184646618383139	-3.681166648128495	-584.7808564045422	-63.08402633076971	-39.45730874352645	-0.02532552085860578	0.4204801579167798	-0.5536145404526841	0.05190520350073669	0.3247047169982692	0.1038863222240118	1.195686520383087	0.08915402628437163	0.08915402628437179	0.01114436213186601	-0.0485699636596257	0.1960123335818965	0.3441426914217235	-1.158637672013128e-08	6.791921609961545e-07	-1.654712037102028e-07	6.646297304292912e-08	2.422886605880964e-07	-9.638328577082523e-09	9.440207671476066e-08
1.59	-0.3909823113736551	-0.0613804953240359	0.8145920947553865	1.012007880721378	-0.3003338537474346	-0.1420586346703489	-0.2828934815373909	0.4193195108766519	0.4193195108765665	-0.1743855889748648	0.1733190678798559	-0.05235125065366875	-0.05486346996728239	0.8191159987494381	0.3685040500638514	0.3807856413577665	-2.2397750953435	0.09979519582575572	-0.4507402959287374	0.6943435588008979	-1.377725666079514	-1.377725666079413	0.0004838374534287627	-0.008533052097876231	0.001818930686538698	0.1105212347961427	-0.1821904738931312	0.005496934984110452	-0.01871495126194472	-0.1667743606830762	0.1667856802317126	0.03116621469173199	0.1704433177950822	15.48917078024142	-20.13795830308783	7.251928776747287	-3.380236005695924	-581.5878789930473	-63.2211024666433	-39.79516431391871	-0.08135611980181874	0.3836933887667134	-0.5912725328597064	0.2212315822305235	0.2936797346898097	0.1114137174595576	1.090942592298871	0.2055677706857962	0.2055677707010253	-0.02335959816126928	-0.01272543966489327	0.1898793180142885	0.3121763648059328	-6.799260905593014e-09	6.715465004698744e-07	-1.791176439473081e-07	5.647289339107429e-08	2.600279760558271e-07	-4.019505032757669e-09	9.422461525065988e-08
